<?xml version="1.0" encoding="utf-8"?>
<!-- Generator: Adobe Illustrator 28.1.0, SVG Export Plug-In . SVG Version: 6.00 Build 0)  -->
<svg version="1.1" id="Layer_1" xmlns="http://www.w3.org/2000/svg" xmlns:xlink="http://www.w3.org/1999/xlink" x="0px" y="0px"
	 viewBox="0 0 50 50" style="enable-background:new 0 0 50 50;" xml:space="preserve">
<style type="text/css">
	.st0{fill:url(#SVGID_1_);}
	.st1{fill:url(#SVGID_00000081637239791612673170000000797535516748619419_);}
	.st2{fill:url(#SVGID_00000043420608985450218580000016910481268585789875_);}
</style>
<g>
	<g>
		<linearGradient id="SVGID_1_" gradientUnits="userSpaceOnUse" x1="-42.2335" y1="31.219" x2="26.7392" y2="24.0779">
			<stop  offset="0" style="stop-color:#00A0C6"/>
			<stop  offset="0.7492" style="stop-color:#84BC2A"/>
			<stop  offset="1" style="stop-color:#BDD030"/>
		</linearGradient>
		<path class="st0" d="M8,19.2v-1.1v-0.5c0-0.9,0.5-1.8,1.2-2.3L22,7.2l1-0.7c0.1-0.1,0.2-0.1,0.4-0.2c0,0,0,0,0,0
			C23.6,6.2,23.8,6.1,24,6c0,0,0,0,0,0c5.3-2.9,8.7-1.8,11.4-0.1l0,0l-2.6-1.7l-3.6-2.3C28,1.1,26.5,0.7,25,0.7
			c-1.5,0-3,0.4-4.2,1.2L6.5,11c-1.1,0.7-2,1.7-2.6,2.8c-0.6,1.1-1,2.4-1,3.8v0.5v1.4v5.1v15.1v1.9c0,2.9,1.6,5.5,4.1,6.9
			c2.5,1.4,5.6,1.3,8-0.3l2.7-1.7l5.9-3.8c0.1-0.1,0.2-0.1,0.3-0.2v0c0,0,5.6-3.6,10.8-0.7l-2.1-1.3v0l-1.5-0.9l-1.9-1.2
			C28,37.4,26.5,37,25,37c-1.5,0-3,0.4-4.2,1.2l-3.2,2l-5.5,3.5c-0.8,0.5-1.9,0.6-2.7,0.1C8.5,43.4,8,42.5,8,41.5v-1.3v-0.6V24.4v-5
			h0c0,0,0,0,0-0.1V19.2z"/>
		
			<linearGradient id="SVGID_00000075865432808534595570000007902847219264330890_" gradientUnits="userSpaceOnUse" x1="27.4425" y1="26.8103" x2="49.9744" y2="26.652">
			<stop  offset="0" style="stop-color:#204650"/>
			<stop  offset="0.1824" style="stop-color:#366F81"/>
			<stop  offset="0.987" style="stop-color:#00A0C6"/>
		</linearGradient>
		<path style="fill:url(#SVGID_00000075865432808534595570000007902847219264330890_);" d="M46.2,13.9c-0.6-1.1-1.5-2.1-2.6-2.8
			l-8.1-5.2l0,0C32.7,4.1,29.4,3.1,24.1,6c0.8-0.3,1.7-0.2,2.4,0.2l14.3,9.2c0.8,0.5,1.2,1.3,1.2,2.3v0.7v0.9v0.2v0.4l0,0v20.2h0
			v1.2v0.2c0,1-0.5,1.9-1.4,2.4c-0.9,0.5-1.9,0.4-2.7-0.1l-3.2-2.1c-5.1-2.9-10.8,0.7-10.8,0.7v0c0.8-0.4,1.8-0.3,2.6,0.2l6.1,3.9
			l2.5,1.6c2.4,1.5,5.5,1.6,8,0.3c2.5-1.4,4.1-4,4.1-6.9v-0.2v-1.2V27.3v-7.8V18v-0.3C47.2,16.3,46.8,15,46.2,13.9z"/>
	</g>
	
		<linearGradient id="SVGID_00000096777639071813124810000007404926078399223951_" gradientUnits="userSpaceOnUse" x1="25.8781" y1="70.343" x2="24.8331" y2="16.5232">
		<stop  offset="0" style="stop-color:#00A0C6"/>
		<stop  offset="0.7492" style="stop-color:#84BC2A"/>
		<stop  offset="1" style="stop-color:#BDD030"/>
	</linearGradient>
	<path style="fill:url(#SVGID_00000096777639071813124810000007404926078399223951_);" d="M33.6,30.4c0,1.8-1.5,3.3-3.3,3.3H19.7
		c-1.8,0-3.3-1.5-3.3-3.3V19.9c0-1.8,1.5-3.3,3.3-3.3h10.5c1.8,0,3.3,1.5,3.3,3.3V30.4z"/>
</g>
</svg>
