<?xml version="1.0" encoding="utf-8"?>
<!-- Generator: Adobe Illustrator 28.1.0, SVG Export Plug-In . SVG Version: 6.00 Build 0)  -->
<svg version="1.1" id="Layer_1" xmlns="http://www.w3.org/2000/svg" xmlns:xlink="http://www.w3.org/1999/xlink" x="0px" y="0px"
	 viewBox="0 0 200 60" style="enable-background:new 0 0 200 60;" xml:space="preserve">
<style type="text/css">
	.st0{fill:url(#SVGID_1_);}
	.st1{fill:url(#SVGID_00000048464893532296400580000004025547507251696816_);}
	.st2{fill:url(#SVGID_00000015357100185777257790000004545727674716460989_);}
	.st3{fill:#FFFFFF;}
</style>
<g>
	<g>
		<linearGradient id="SVGID_1_" gradientUnits="userSpaceOnUse" x1="-33.6753" y1="35.5055" x2="27.3847" y2="29.1836">
			<stop  offset="0" style="stop-color:#00A0C6"/>
			<stop  offset="0.7492" style="stop-color:#84BC2A"/>
			<stop  offset="1" style="stop-color:#BDD030"/>
		</linearGradient>
		<path class="st0" d="M10.8,24.9v-1v-0.4c0-0.8,0.4-1.6,1.1-2l11.3-7.2l0.9-0.6c0.1-0.1,0.2-0.1,0.3-0.2c0,0,0,0,0,0
			c0.2-0.1,0.4-0.2,0.6-0.3c0,0,0,0,0,0c4.7-2.5,7.7-1.6,10.1-0.1l0,0l-2.3-1.5l-3.2-2.1c-1.1-0.7-2.4-1.1-3.7-1.1
			c-1.3,0-2.6,0.4-3.7,1.1L9.4,17.6c-1,0.6-1.8,1.5-2.3,2.5c-0.6,1-0.9,2.2-0.9,3.3v0.4v1.2v4.5V43v1.6c0,2.5,1.4,4.9,3.6,6.1
			c2.2,1.2,4.9,1.1,7.1-0.2l2.4-1.5l5.3-3.4c0.1-0.1,0.2-0.1,0.3-0.2v0c0,0,5-3.2,9.5-0.6l-1.8-1.2v0l-1.3-0.8l-1.7-1.1
			c-1.1-0.7-2.4-1.1-3.7-1.1c-1.3,0-2.6,0.4-3.7,1.1l-2.8,1.8l-4.9,3.1c-0.7,0.5-1.7,0.5-2.4,0.1c-0.8-0.4-1.2-1.2-1.2-2.1v-1.1V43
			V29.5v-4.4h0c0,0,0,0,0-0.1V24.9z"/>
		
			<linearGradient id="SVGID_00000035497149282058937520000010251039975877954958_" gradientUnits="userSpaceOnUse" x1="28.0073" y1="31.6027" x2="47.9542" y2="31.4625">
			<stop  offset="0" style="stop-color:#204650"/>
			<stop  offset="0.1824" style="stop-color:#366F81"/>
			<stop  offset="0.987" style="stop-color:#00A0C6"/>
		</linearGradient>
		<path style="fill:url(#SVGID_00000035497149282058937520000010251039975877954958_);" d="M44.6,20.2c-0.6-1-1.4-1.9-2.3-2.5
			l-7.2-4.6l0,0c-2.4-1.5-5.4-2.5-10.1,0.1c0.7-0.3,1.5-0.2,2.1,0.2l12.7,8.1c0.7,0.4,1.1,1.2,1.1,2v0.6v0.8v0.2v0.4l0,0v17.9h0v1.1
			v0.2c0,0.9-0.5,1.7-1.2,2.1c-0.8,0.4-1.7,0.4-2.4-0.1l-2.9-1.8c-4.5-2.6-9.5,0.6-9.5,0.6v0c0.7-0.3,1.6-0.3,2.3,0.2l5.4,3.5
			l2.3,1.4c2.1,1.4,4.8,1.5,7.1,0.2c2.2-1.2,3.6-3.5,3.6-6.1v-0.2v-1.1V32v-6.9v-1.4v-0.3C45.5,22.3,45.2,21.2,44.6,20.2z"/>
	</g>
	
		<linearGradient id="SVGID_00000144323457080025121910000013678765369919683757_" gradientUnits="userSpaceOnUse" x1="26.6224" y1="70.1411" x2="25.6972" y2="22.4957">
		<stop  offset="0" style="stop-color:#00A0C6"/>
		<stop  offset="0.7492" style="stop-color:#84BC2A"/>
		<stop  offset="1" style="stop-color:#BDD030"/>
	</linearGradient>
	<path style="fill:url(#SVGID_00000144323457080025121910000013678765369919683757_);" d="M33.4,34.8c0,1.6-1.3,2.9-2.9,2.9h-9.3
		c-1.6,0-2.9-1.3-2.9-2.9v-9.3c0-1.6,1.3-2.9,2.9-2.9h9.3c1.6,0,2.9,1.3,2.9,2.9V34.8z"/>
</g>
<g>
	<path class="st3" d="M60.5,41.2L56,33.4h-1.9v7.9H50V21h7.6c1.6,0,2.9,0.3,4,0.8c1.1,0.6,1.9,1.3,2.5,2.2c0.6,0.9,0.8,2,0.8,3.1
		c0,1.3-0.4,2.5-1.2,3.6c-0.8,1.1-1.9,1.8-3.5,2.2l4.8,8.2H60.5z M54.1,30.3h3.4c1.1,0,1.9-0.3,2.5-0.8c0.5-0.5,0.8-1.3,0.8-2.2
		c0-0.9-0.3-1.6-0.8-2.2c-0.5-0.5-1.4-0.8-2.5-0.8h-3.4V30.3z"/>
	<path class="st3" d="M82.7,34.4H71c0.1,1.2,0.5,2.1,1.2,2.7c0.7,0.7,1.6,1,2.6,1c1.5,0,2.6-0.6,3.2-1.9h4.4
		C82,37.7,81.1,39,79.8,40c-1.3,1-2.9,1.5-4.8,1.5c-1.5,0-2.9-0.3-4.2-1s-2.2-1.7-2.9-2.9c-0.7-1.3-1-2.7-1-4.4c0-1.7,0.3-3.1,1-4.4
		c0.7-1.3,1.6-2.2,2.8-2.9c1.2-0.7,2.6-1,4.2-1c1.5,0,2.9,0.3,4.1,1c1.2,0.7,2.1,1.6,2.8,2.8c0.7,1.2,1,2.6,1,4.2
		C82.8,33.4,82.8,34,82.7,34.4z M78.6,31.7c0-1-0.4-1.9-1.1-2.5c-0.7-0.6-1.6-0.9-2.7-0.9c-1,0-1.9,0.3-2.5,0.9
		c-0.7,0.6-1.1,1.5-1.3,2.5H78.6z"/>
	<path class="st3" d="M88.8,37.9H96v3.3H84.2V38l7-9.5h-7v-3.3h11.7v3.3L88.8,37.9z"/>
	<path class="st3" d="M102.1,37.9h7.2v3.3H97.5V38l7-9.5h-7v-3.3h11.7v3.3L102.1,37.9z"/>
	<path class="st3" d="M111.9,22.6c-0.5-0.5-0.7-1-0.7-1.7c0-0.7,0.2-1.2,0.7-1.7c0.5-0.5,1.1-0.7,1.8-0.7c0.7,0,1.3,0.2,1.8,0.7
		c0.5,0.5,0.7,1,0.7,1.7c0,0.7-0.2,1.2-0.7,1.7c-0.5,0.5-1.1,0.7-1.8,0.7C113,23.3,112.4,23,111.9,22.6z M115.7,25.2v16.1h-4.1V25.2
		H115.7z"/>
	<path class="st3" d="M118.9,28.8c0.6-1.3,1.5-2.2,2.7-2.9c1.1-0.7,2.4-1,3.7-1c1,0,2,0.2,3,0.7c0.9,0.5,1.7,1.1,2.3,1.8v-7.6h4.1
		v21.5h-4.1v-2.4c-0.5,0.8-1.2,1.4-2.1,1.9c-0.9,0.5-2,0.7-3.2,0.7c-1.4,0-2.6-0.3-3.7-1c-1.1-0.7-2-1.7-2.7-2.9
		c-0.6-1.3-1-2.7-1-4.4C117.9,31.5,118.3,30.1,118.9,28.8z M130,30.7c-0.4-0.7-0.9-1.2-1.6-1.6c-0.7-0.4-1.4-0.6-2.1-0.6
		s-1.5,0.2-2.1,0.6c-0.6,0.4-1.2,0.9-1.6,1.6s-0.6,1.5-0.6,2.5c0,1,0.2,1.8,0.6,2.5c0.4,0.7,0.9,1.3,1.6,1.7
		c0.6,0.4,1.3,0.6,2.1,0.6c0.8,0,1.5-0.2,2.1-0.6c0.7-0.4,1.2-0.9,1.6-1.6c0.4-0.7,0.6-1.6,0.6-2.5S130.4,31.4,130,30.7z"/>
	<path class="st3" d="M152.8,34.4H141c0.1,1.2,0.5,2.1,1.2,2.7c0.7,0.7,1.6,1,2.6,1c1.5,0,2.6-0.6,3.2-1.9h4.4
		c-0.5,1.5-1.4,2.8-2.7,3.8s-2.9,1.5-4.8,1.5c-1.5,0-2.9-0.3-4.2-1c-1.2-0.7-2.2-1.7-2.9-2.9c-0.7-1.3-1-2.7-1-4.4
		c0-1.7,0.3-3.1,1-4.4c0.7-1.3,1.6-2.2,2.8-2.9c1.2-0.7,2.6-1,4.2-1c1.5,0,2.9,0.3,4.1,1c1.2,0.7,2.1,1.6,2.8,2.8
		c0.7,1.2,1,2.6,1,4.2C152.9,33.4,152.8,34,152.8,34.4z M148.7,31.7c0-1-0.4-1.9-1.1-2.5c-0.7-0.6-1.6-0.9-2.7-0.9
		c-1,0-1.9,0.3-2.5,0.9s-1.1,1.5-1.3,2.5H148.7z"/>
	<path class="st3" d="M168.7,26.8c1.2,1.2,1.8,2.9,1.8,5.1v9.4h-4.1v-8.9c0-1.3-0.3-2.3-1-2.9c-0.6-0.7-1.5-1-2.6-1
		c-1.1,0-2,0.3-2.7,1c-0.6,0.7-1,1.7-1,2.9v8.9h-4.1V25.2h4.1v2c0.5-0.7,1.2-1.2,2.1-1.6c0.8-0.4,1.8-0.6,2.8-0.6
		C165.9,24.9,167.5,25.5,168.7,26.8z"/>
	<path class="st3" d="M178.3,28.5v7.8c0,0.5,0.1,0.9,0.4,1.2c0.3,0.2,0.7,0.4,1.3,0.4h1.9v3.4h-2.6c-3.4,0-5.1-1.7-5.1-5v-7.7h-1.9
		v-3.3h1.9v-4h4.1v4h3.6v3.3H178.3z"/>
</g>
</svg>
