<?xml version="1.0" encoding="utf-8"?>
<!-- Generator: Adobe Illustrator 28.1.0, SVG Export Plug-In . SVG Version: 6.00 Build 0)  -->
<svg version="1.1" id="Layer_1" xmlns="http://www.w3.org/2000/svg" xmlns:xlink="http://www.w3.org/1999/xlink" x="0px" y="0px"
	 viewBox="0 0 50 50" style="enable-background:new 0 0 50 50;" xml:space="preserve">
<style type="text/css">
	.st0{fill:#465E25;}
	.st1{fill:url(#SVGID_1_);}
	.st2{fill:url(#SVGID_00000008846596047030758690000014797883655567369623_);}
	.st3{fill:url(#SVGID_00000041984796745243123990000004483481303915066510_);}
	.st4{fill:url(#SVGID_00000070818132936735082300000004806646547042869907_);}
</style>
<g>
	<g>
		<polygon class="st0" points="40.2,23.3 40.2,23.3 40.2,23.3 		"/>
		<linearGradient id="SVGID_1_" gradientUnits="userSpaceOnUse" x1="30.3067" y1="62.2452" x2="30.3067" y2="29.047">
			<stop  offset="0.2182" style="stop-color:#EA4A88"/>
			<stop  offset="0.3039" style="stop-color:#E24784"/>
			<stop  offset="0.4443" style="stop-color:#CC3D7B"/>
			<stop  offset="0.6209" style="stop-color:#AB316C"/>
			<stop  offset="0.7003" style="stop-color:#9B2C66"/>
			<stop  offset="0.7643" style="stop-color:#982B65"/>
			<stop  offset="0.812" style="stop-color:#8F2A62"/>
			<stop  offset="0.8546" style="stop-color:#81285D"/>
			<stop  offset="0.8941" style="stop-color:#6D2456"/>
			<stop  offset="0.9314" style="stop-color:#55204E"/>
			<stop  offset="0.9667" style="stop-color:#3B1C44"/>
			<stop  offset="1" style="stop-color:#201739"/>
		</linearGradient>
		<path class="st1" d="M40.6,24c0.3,0.8,0.2,1.7-0.3,2.5L31,41.2c-0.5,0.8-1.4,1.3-2.3,1.3H27h-0.2c-1,0-1.9-0.5-2.4-1.4
			s-0.4-2,0.1-2.8l1.6-2.5l0.6-0.9c2.9-5.2-0.8-11-0.8-11h0c0.4,0.8,0.3,1.8-0.2,2.6l-4,6.3l-2.6,4.1c-0.6,0.9-0.8,1.8-0.8,2.6
			c0,2.7,2.1,5,2.1,5c1.5,2,3.9,3.2,6.4,3.2h1.9c1.3,0,2.7-0.3,3.9-1c1.2-0.6,2.2-1.6,2.9-2.7l5.3-8.3l0,0
			C42.5,33,43.6,29.5,40.6,24z"/>
		
			<linearGradient id="SVGID_00000176721884382683708700000011512194100674944904_" gradientUnits="userSpaceOnUse" x1="25.9541" y1="30.0025" x2="-8.7378" y2="-4.5201">
			<stop  offset="0" style="stop-color:#EF7D55"/>
			<stop  offset="0.1567" style="stop-color:#ED6C70"/>
			<stop  offset="0.305" style="stop-color:#EB5B7F"/>
			<stop  offset="0.4191" style="stop-color:#EA4F86"/>
			<stop  offset="0.4853" style="stop-color:#EA4A88"/>
			<stop  offset="1" style="stop-color:#201739"/>
		</linearGradient>
		<path style="fill:url(#SVGID_00000176721884382683708700000011512194100674944904_);" d="M30,20.7L28,17.4L20.6,5.9
			c-0.7-1.1-1.7-2.1-2.9-2.7c-1.2-0.6-2.5-1-3.9-1H12c-2.9,0-5.6,1.6-7,4.2C3.5,9,3.6,12.1,5.2,14.6L7,17.4l0,0l3.9,6.1
			c0.1,0.1,0.1,0.2,0.2,0.3h0c0,0,3.7,5.8,0.7,11.1l1.4-2.1h0l1-1.5l1.2-1.9c0.8-1.3,1.3-2.8,1.3-4.3c0-1.5-0.4-3-1.3-4.3l-2.1-3.3
			l0,0l-3.6-5.6C9.1,10.9,9,9.8,9.5,8.9C10,8.1,10.9,7.5,12,7.5h1.9c0.9,0,1.8,0.5,2.3,1.3l5.5,8.6l3.8,5.9l0.1,0.2
			c0,0,0.1,0.1,0.1,0.2c0,0,0,0,0,0c0,0,0.1,0.1,0.1,0.1h0c0,0,3.7,5.7,0.8,11l1.3-2l1-1.5l1.2-1.9c0.8-1.3,1.3-2.8,1.3-4.3
			C31.3,23.5,30.9,22,30,20.7z"/>
	</g>
	<g>
		
			<linearGradient id="SVGID_00000034769811027081163300000018346641759633510061_" gradientUnits="userSpaceOnUse" x1="57.5406" y1="22.5594" x2="20.141" y2="-18.3939" gradientTransform="matrix(1 0 0 1 -12.3662 5.9946)">
			<stop  offset="0" style="stop-color:#EF7D55"/>
			<stop  offset="0.1567" style="stop-color:#ED6C70"/>
			<stop  offset="0.305" style="stop-color:#EB5B7F"/>
			<stop  offset="0.4191" style="stop-color:#EA4F86"/>
			<stop  offset="0.4853" style="stop-color:#EA4A88"/>
			<stop  offset="1" style="stop-color:#201739"/>
		</linearGradient>
		<path style="fill:url(#SVGID_00000034769811027081163300000018346641759633510061_);" d="M42.4,33.1l2.4-3.7
			c0.8-1.3,1.3-2.8,1.3-4.3c0-1.5-0.4-3-1.3-4.3L35.4,5.9c-0.7-1.1-1.7-2.1-2.9-2.7c-1.2-0.6-2.5-1-3.9-1h-0.5h-1.4h-5.3l1.2,2
			c1.5,2.6,2.2,3.3,4.2,3.3H27h1.1h0.5c0.9,0,1.8,0.5,2.3,1.3l8.4,13.1l0.7,1c0.1,0.1,0.2,0.3,0.2,0.4c0,0,0,0,0,0
			c0.1,0.2,0.3,0.4,0.4,0.7c0,0,0,0,0,0c3,5.5,1.9,8.9,0.1,11.7l0,0L42.4,33.1z"/>
	</g>
	<g>
		
			<linearGradient id="SVGID_00000054234538517241975130000002343337184153393079_" gradientUnits="userSpaceOnUse" x1="9.3579" y1="61.0444" x2="30.569" y2="24.0377" gradientTransform="matrix(1 0 0 1 -12.3662 5.9946)">
			<stop  offset="0.4104" style="stop-color:#EA4A88"/>
			<stop  offset="0.4573" style="stop-color:#E24784"/>
			<stop  offset="0.5342" style="stop-color:#CC3D7B"/>
			<stop  offset="0.6308" style="stop-color:#AB316C"/>
			<stop  offset="0.6743" style="stop-color:#9B2C66"/>
			<stop  offset="0.7438" style="stop-color:#982B65"/>
			<stop  offset="0.7957" style="stop-color:#8F2A62"/>
			<stop  offset="0.8419" style="stop-color:#81285D"/>
			<stop  offset="0.8849" style="stop-color:#6D2456"/>
			<stop  offset="0.9255" style="stop-color:#55204E"/>
			<stop  offset="0.9638" style="stop-color:#3B1C44"/>
			<stop  offset="1" style="stop-color:#201739"/>
		</linearGradient>
		<path style="fill:url(#SVGID_00000054234538517241975130000002343337184153393079_);" d="M16.8,44.5c-0.9-1.4-1.6-2-2.8-2h-1.8H12
			c-1,0-1.9-0.5-2.4-1.4c-0.5-0.9-0.4-2,0.1-2.8l2.1-3.3c3-5.3-0.7-11.1-0.7-11.1h0c0.4,0.8,0.3,1.8-0.2,2.6l-4,6.3l-1.7,2.6
			c-1.6,2.5-1.7,5.6-0.3,8.2c1.4,2.6,4.1,4.2,7,4.2h0.2h6.6L16.8,44.5z"/>
	</g>
</g>
</svg>
